<?xml version="1.0" encoding="UTF-8"?>
<svg width="119px" height="107px" viewBox="0 0 119 107" version="1.1" xmlns="http://www.w3.org/2000/svg"
     xmlns:xlink="http://www.w3.org/1999/xlink">
    <g id="Page-1" stroke="none" stroke-width="1" fill="none" fill-rule="evenodd">
        <g id="house" transform="translate(-1687.000000, -1033.000000)" fill="#fff" fill-rule="nonzero">
            <g id="Symbols" transform="translate(491.000000, 607.000000)">
                <g id="Medium-M" transform="translate(1195.320000, 426.000000)">
                    <path d="M5.9902,58.2832 C7.6016,58.2832 8.9688,57.5508 10.0918,56.4277 L16.5371,50.5684 L16.5371,94.51367 C16.5371,101.78906 20.8828,106.0371 28.3535,106.0371 L92.123,106.0371 C99.594,106.0371 103.939,101.74023 103.939,94.51367 L103.939,50.5684 L110.385,56.4277 C111.557,57.5508 112.875,58.2832 114.486,58.2832 C117.318,58.2832 119.516,56.4277 119.516,53.6934 C119.516,52.082 118.979,50.8613 117.709,49.6895 L99.984,33.5273 L99.984,4.1328 C99.984,1.9844 98.568,0.5684 96.42,0.5684 L88.4609,0.5684 C86.3125,0.5684 84.8477,1.9844 84.8477,4.1328 L84.8477,19.709 L67.1719,3.6445 C65.1211,1.7402 62.7285,0.7637 60.2383,0.7637 C57.748,0.7637 55.3555,1.7402 53.3047,3.6445 L2.8164,49.6895 C1.498,50.8613 0.96094,52.082 0.96094,53.6934 C0.96094,56.4277 3.1582,58.2832 5.9902,58.2832 Z M74.4961,64.0938 C74.4961,61.7988 73.0312,60.334 70.7363,60.334 L49.7891,60.334 C47.4941,60.334 45.9805,61.7988 45.9805,64.0938 L45.9805,96.32031 L30.9902,96.32031 C27.9141,96.32031 26.2539,94.61133 26.2539,91.53516 L26.2539,41.6816 L58.7246,12.043 C59.1641,11.6523 59.7012,11.4082 60.2383,11.4082 C60.7754,11.4082 61.3613,11.6035 61.8008,12.043 L94.223,41.6816 L94.223,91.53516 C94.223,94.61133 92.562,96.32031 89.5352,96.32031 L74.4961,96.32031 L74.4961,64.0938 Z"></path>
                </g>
            </g>
        </g>
    </g>
</svg>
